<svg width="79" height="18" viewBox="0 0 79 18" fill="none" xmlns="http://www.w3.org/2000/svg">
<path d="M0.816 0.0079999C1.232 0.0239997 1.776 0.0399995 2.448 0.0559993C3.12 0.0719991 3.792 0.079999 4.464 0.079999C5.232 0.079999 5.976 0.0719991 6.696 0.0559993C7.416 0.0399995 7.928 0.0319996 8.232 0.0319996C10.216 0.0319996 11.696 0.383999 12.672 1.088C13.664 1.792 14.16 2.696 14.16 3.8C14.16 4.36 13.992 4.928 13.656 5.504C13.32 6.08 12.8 6.592 12.096 7.04C11.392 7.488 10.48 7.816 9.36 8.024V8.072C10.864 8.184 12.056 8.456 12.936 8.888C13.816 9.32 14.448 9.84 14.832 10.448C15.216 11.056 15.408 11.688 15.408 12.344C15.408 13.352 15.144 14.2 14.616 14.888C14.088 15.576 13.328 16.104 12.336 16.472C11.344 16.824 10.16 17 8.784 17C8.4 17 7.848 16.992 7.128 16.976C6.408 16.944 5.536 16.928 4.512 16.928C3.808 16.928 3.12 16.936 2.448 16.952C1.776 16.952 1.232 16.968 0.816 17V16.52C1.328 16.488 1.712 16.424 1.968 16.328C2.224 16.232 2.392 16.04 2.472 15.752C2.568 15.464 2.616 15.032 2.616 14.456V2.552C2.616 1.96 2.568 1.528 2.472 1.256C2.392 0.967999 2.216 0.776 1.944 0.68C1.688 0.567999 1.312 0.503999 0.816 0.487999V0.0079999ZM7.92 0.487999C7.296 0.487999 6.888 0.624 6.696 0.896C6.52 1.168 6.432 1.72 6.432 2.552V14.456C6.432 15.016 6.472 15.44 6.552 15.728C6.648 16.016 6.808 16.208 7.032 16.304C7.272 16.4 7.624 16.448 8.088 16.448C9.24 16.448 10.08 16.088 10.608 15.368C11.152 14.632 11.424 13.592 11.424 12.248C11.424 11.016 11.112 10.064 10.488 9.392C9.88 8.72 8.864 8.384 7.44 8.384H5.4C5.4 8.384 5.4 8.32 5.4 8.192C5.4 8.048 5.4 7.976 5.4 7.976H7.464C8.216 7.976 8.792 7.8 9.192 7.448C9.592 7.08 9.872 6.6 10.032 6.008C10.192 5.4 10.272 4.752 10.272 4.064C10.272 2.88 10.088 1.992 9.72 1.4C9.352 0.791999 8.752 0.487999 7.92 0.487999ZM24.9101 4.256C25.4221 4.256 25.8381 4.368 26.1581 4.592C26.4781 4.8 26.7101 5.072 26.8541 5.408C27.0141 5.744 27.0941 6.096 27.0941 6.464C27.0941 7.056 26.9181 7.544 26.5661 7.928C26.2301 8.296 25.7821 8.48 25.2221 8.48C24.6621 8.48 24.2221 8.344 23.9021 8.072C23.5981 7.784 23.4461 7.408 23.4461 6.944C23.4461 6.496 23.5421 6.128 23.7341 5.84C23.9421 5.536 24.1981 5.28 24.5021 5.072C24.2781 5.008 24.0541 5.016 23.8301 5.096C23.5261 5.144 23.2381 5.272 22.9661 5.48C22.6941 5.672 22.4621 5.92 22.2701 6.224C22.0781 6.512 21.9261 6.832 21.8141 7.184C21.7021 7.52 21.6461 7.848 21.6461 8.168V14.528C21.6461 15.296 21.8301 15.816 22.1981 16.088C22.5821 16.36 23.1501 16.496 23.9021 16.496V17C23.5341 16.984 22.9981 16.968 22.2941 16.952C21.5901 16.92 20.8541 16.904 20.0861 16.904C19.4461 16.904 18.7981 16.92 18.1421 16.952C17.4861 16.968 16.9901 16.984 16.6541 17V16.496C17.2141 16.496 17.6061 16.376 17.8301 16.136C18.0701 15.896 18.1901 15.44 18.1901 14.768V7.208C18.1901 6.488 18.0781 5.96 17.8541 5.624C17.6461 5.272 17.2461 5.096 16.6541 5.096V4.592C17.1661 4.64 17.6621 4.664 18.1421 4.664C18.8141 4.664 19.4381 4.64 20.0141 4.592C20.6061 4.528 21.1501 4.44 21.6461 4.328V6.56C21.8381 6.128 22.0941 5.736 22.4141 5.384C22.7341 5.032 23.1021 4.76 23.5181 4.568C23.9341 4.36 24.3981 4.256 24.9101 4.256ZM31.1693 17.168C30.4493 17.168 29.8493 17.032 29.3693 16.76C28.8893 16.488 28.5373 16.128 28.3133 15.68C28.0893 15.216 27.9773 14.712 27.9773 14.168C27.9773 13.48 28.1293 12.92 28.4333 12.488C28.7533 12.056 29.1613 11.704 29.6573 11.432C30.1533 11.16 30.6733 10.936 31.2173 10.76C31.7773 10.584 32.3053 10.416 32.8013 10.256C33.3133 10.08 33.7213 9.88 34.0253 9.656C34.3453 9.416 34.5053 9.112 34.5053 8.744V6.872C34.5053 6.456 34.4333 6.088 34.2893 5.768C34.1613 5.432 33.9533 5.176 33.6653 5C33.3933 4.824 33.0333 4.736 32.5853 4.736C32.2653 4.736 31.9453 4.784 31.6253 4.88C31.3053 4.96 31.0413 5.104 30.8333 5.312C31.2813 5.472 31.6253 5.72 31.8653 6.056C32.1213 6.376 32.2493 6.744 32.2493 7.16C32.2493 7.704 32.0573 8.136 31.6733 8.456C31.3053 8.776 30.8653 8.936 30.3533 8.936C29.7773 8.936 29.3373 8.76 29.0333 8.408C28.7453 8.04 28.6013 7.6 28.6013 7.088C28.6013 6.624 28.7133 6.24 28.9373 5.936C29.1773 5.632 29.5053 5.344 29.9213 5.072C30.3693 4.816 30.9053 4.616 31.5293 4.472C32.1693 4.328 32.8573 4.256 33.5933 4.256C34.3293 4.256 34.9933 4.336 35.5853 4.496C36.1773 4.64 36.6733 4.912 37.0733 5.312C37.4413 5.68 37.6813 6.136 37.7933 6.68C37.9053 7.208 37.9613 7.88 37.9613 8.696V15.224C37.9613 15.624 38.0013 15.904 38.0813 16.064C38.1613 16.208 38.2973 16.28 38.4893 16.28C38.6333 16.28 38.7693 16.24 38.8973 16.16C39.0413 16.08 39.1933 15.984 39.3533 15.872L39.5933 16.28C39.2573 16.568 38.8653 16.792 38.4173 16.952C37.9853 17.096 37.4973 17.168 36.9533 17.168C36.3613 17.168 35.8893 17.088 35.5373 16.928C35.1853 16.752 34.9293 16.52 34.7693 16.232C34.6253 15.944 34.5533 15.608 34.5533 15.224C34.1693 15.832 33.7053 16.312 33.1613 16.664C32.6173 17 31.9533 17.168 31.1693 17.168ZM32.8733 15.632C33.1933 15.632 33.4813 15.56 33.7373 15.416C34.0093 15.256 34.2653 15 34.5053 14.648V9.728C34.3613 9.968 34.1613 10.184 33.9053 10.376C33.6493 10.568 33.3773 10.768 33.0893 10.976C32.8013 11.168 32.5213 11.384 32.2493 11.624C31.9933 11.864 31.7853 12.16 31.6253 12.512C31.4653 12.864 31.3853 13.288 31.3853 13.784C31.3853 14.408 31.5213 14.872 31.7933 15.176C32.0653 15.48 32.4253 15.632 32.8733 15.632Z" fill="#0A0425"/>
<path d="M55.9751 0.0079999V0.487999C55.6231 0.616 55.2471 0.895999 54.8471 1.328C54.4631 1.76 54.1031 2.432 53.7671 3.344L48.7031 17.048C48.5751 17.032 48.4391 17.024 48.2951 17.024C48.1511 17.024 48.0071 17.024 47.8631 17.024C47.7351 17.024 47.5991 17.024 47.4551 17.024C47.3111 17.024 47.1751 17.032 47.0471 17.048L40.9271 2.024C40.7031 1.448 40.4551 1.056 40.1831 0.847999C39.9111 0.623999 39.6551 0.503999 39.4151 0.487999V0.0079999C39.8951 0.0239997 40.4551 0.0399995 41.0951 0.0559993C41.7511 0.0719991 42.4071 0.079999 43.0631 0.079999C43.7991 0.079999 44.4871 0.0719991 45.1271 0.0559993C45.7831 0.0399995 46.3111 0.0239997 46.7111 0.0079999V0.487999C46.1991 0.503999 45.7991 0.567999 45.5111 0.68C45.2231 0.776 45.0631 0.967999 45.0311 1.256C44.9991 1.528 45.0951 1.944 45.3191 2.504L49.6871 13.616L49.1831 14.216L52.4951 5.288C52.9271 4.088 53.1511 3.144 53.1671 2.456C53.1831 1.768 53.0151 1.272 52.6631 0.967999C52.3111 0.663999 51.8071 0.503999 51.1511 0.487999V0.0079999C51.6951 0.0239997 52.2071 0.0399995 52.6871 0.0559993C53.1671 0.0719991 53.6551 0.079999 54.1511 0.079999C54.5031 0.079999 54.8311 0.0719991 55.1351 0.0559993C55.4551 0.0399995 55.7351 0.0239997 55.9751 0.0079999ZM57.888 17.168C57.168 17.168 56.568 17.032 56.088 16.76C55.608 16.488 55.256 16.128 55.032 15.68C54.808 15.216 54.696 14.712 54.696 14.168C54.696 13.48 54.848 12.92 55.152 12.488C55.472 12.056 55.88 11.704 56.376 11.432C56.872 11.16 57.392 10.936 57.936 10.76C58.496 10.584 59.024 10.416 59.52 10.256C60.032 10.08 60.44 9.88 60.744 9.656C61.064 9.416 61.224 9.112 61.224 8.744V6.872C61.224 6.456 61.152 6.088 61.008 5.768C60.88 5.432 60.672 5.176 60.384 5C60.112 4.824 59.752 4.736 59.304 4.736C58.984 4.736 58.664 4.784 58.344 4.88C58.024 4.96 57.76 5.104 57.552 5.312C58 5.472 58.344 5.72 58.584 6.056C58.84 6.376 58.968 6.744 58.968 7.16C58.968 7.704 58.776 8.136 58.392 8.456C58.024 8.776 57.584 8.936 57.072 8.936C56.496 8.936 56.056 8.76 55.752 8.408C55.464 8.04 55.32 7.6 55.32 7.088C55.32 6.624 55.432 6.24 55.656 5.936C55.896 5.632 56.224 5.344 56.64 5.072C57.088 4.816 57.624 4.616 58.248 4.472C58.888 4.328 59.576 4.256 60.312 4.256C61.048 4.256 61.712 4.336 62.304 4.496C62.896 4.64 63.392 4.912 63.792 5.312C64.16 5.68 64.4 6.136 64.512 6.68C64.624 7.208 64.68 7.88 64.68 8.696V15.224C64.68 15.624 64.72 15.904 64.8 16.064C64.88 16.208 65.016 16.28 65.208 16.28C65.352 16.28 65.488 16.24 65.616 16.16C65.76 16.08 65.912 15.984 66.072 15.872L66.312 16.28C65.976 16.568 65.584 16.792 65.136 16.952C64.704 17.096 64.216 17.168 63.672 17.168C63.08 17.168 62.608 17.088 62.256 16.928C61.904 16.752 61.648 16.52 61.488 16.232C61.344 15.944 61.272 15.608 61.272 15.224C60.888 15.832 60.424 16.312 59.88 16.664C59.336 17 58.672 17.168 57.888 17.168ZM59.592 15.632C59.912 15.632 60.2 15.56 60.456 15.416C60.728 15.256 60.984 15 61.224 14.648V9.728C61.08 9.968 60.88 10.184 60.624 10.376C60.368 10.568 60.096 10.768 59.808 10.976C59.52 11.168 59.24 11.384 58.968 11.624C58.712 11.864 58.504 12.16 58.344 12.512C58.184 12.864 58.104 13.288 58.104 13.784C58.104 14.408 58.24 14.872 58.512 15.176C58.784 15.48 59.144 15.632 59.592 15.632ZM70.3099 17.168C69.5899 17.168 68.9899 17.032 68.5099 16.76C68.0299 16.488 67.6779 16.128 67.4539 15.68C67.2299 15.216 67.1179 14.712 67.1179 14.168C67.1179 13.48 67.2699 12.92 67.5739 12.488C67.8939 12.056 68.3019 11.704 68.7979 11.432C69.2939 11.16 69.8139 10.936 70.3579 10.76C70.9179 10.584 71.4459 10.416 71.9419 10.256C72.4539 10.08 72.8619 9.88 73.1659 9.656C73.4859 9.416 73.6459 9.112 73.6459 8.744V6.872C73.6459 6.456 73.5739 6.088 73.4299 5.768C73.3019 5.432 73.0939 5.176 72.8059 5C72.5339 4.824 72.1739 4.736 71.7259 4.736C71.4059 4.736 71.0859 4.784 70.7659 4.88C70.4459 4.96 70.1819 5.104 69.9739 5.312C70.4219 5.472 70.7659 5.72 71.0059 6.056C71.2619 6.376 71.3899 6.744 71.3899 7.16C71.3899 7.704 71.1979 8.136 70.8139 8.456C70.4459 8.776 70.0059 8.936 69.4939 8.936C68.9179 8.936 68.4779 8.76 68.1739 8.408C67.8859 8.04 67.7419 7.6 67.7419 7.088C67.7419 6.624 67.8539 6.24 68.0779 5.936C68.3179 5.632 68.6459 5.344 69.0619 5.072C69.5099 4.816 70.0459 4.616 70.6699 4.472C71.3099 4.328 71.9979 4.256 72.7339 4.256C73.4699 4.256 74.1339 4.336 74.7259 4.496C75.3179 4.64 75.8139 4.912 76.2139 5.312C76.5819 5.68 76.8219 6.136 76.9339 6.68C77.0459 7.208 77.1019 7.88 77.1019 8.696V15.224C77.1019 15.624 77.1419 15.904 77.2219 16.064C77.3019 16.208 77.4379 16.28 77.6299 16.28C77.7739 16.28 77.9099 16.24 78.0379 16.16C78.1819 16.08 78.3339 15.984 78.4939 15.872L78.7339 16.28C78.3979 16.568 78.0059 16.792 77.5579 16.952C77.1259 17.096 76.6379 17.168 76.0939 17.168C75.5019 17.168 75.0299 17.088 74.6779 16.928C74.3259 16.752 74.0699 16.52 73.9099 16.232C73.7659 15.944 73.6939 15.608 73.6939 15.224C73.3099 15.832 72.8459 16.312 72.3019 16.664C71.7579 17 71.0939 17.168 70.3099 17.168ZM72.0139 15.632C72.3339 15.632 72.6219 15.56 72.8779 15.416C73.1499 15.256 73.4059 15 73.6459 14.648V9.728C73.5019 9.968 73.3019 10.184 73.0459 10.376C72.7899 10.568 72.5179 10.768 72.2299 10.976C71.9419 11.168 71.6619 11.384 71.3899 11.624C71.1339 11.864 70.9259 12.16 70.7659 12.512C70.6059 12.864 70.5259 13.288 70.5259 13.784C70.5259 14.408 70.6619 14.872 70.9339 15.176C71.2059 15.48 71.5659 15.632 72.0139 15.632Z" fill="#3BC7DA"/>
</svg>
