<svg width="246" height="220" viewBox="0 0 246 220" fill="none" xmlns="http://www.w3.org/2000/svg">
<path d="M1.84071 143.504C12.7872 127.038 65.7015 139.314 84.2319 173.693C107.395 216.667 93.0662 228.542 64.7313 207.488C33.3818 184.195 20.7961 134.198 29.3177 118.461C36.1346 105.871 56.2383 100.333 78.5543 114.782C106.449 132.844 143.132 168.074 135.419 179.681C127.707 191.288 95.7365 183.807 74.6336 148.11C53.5307 112.414 61.2793 86.3479 71.782 79.7569C79.4403 74.9509 106.907 70.63 140.171 102.109C173.435 133.587 172.395 145.98 167.892 150.084C164.866 152.842 143.35 163.296 116.222 128.514C89.093 93.7325 86.7694 66.0967 98.01 55.8515C104.736 49.7214 139.598 36.2558 176.171 73.8736C205.43 103.968 206.932 118.012 197.867 122.764C193.875 124.856 167.869 124.47 145.167 97.5552C116.789 63.9117 119.859 25.9405 140.474 17.1476C151.46 12.4619 192.099 13.5808 226.065 55.8638C260.03 98.1468 241.791 123.298 213.511 94.7715C210.878 92.1163 171.055 53.6345 161.423 30.0968C153.16 9.90689 155.504 1.16928 161.487 2.57257" stroke="#FF7500" stroke-width="3"/>
</svg>
