<svg width="117" height="131" viewBox="0 0 117 131" fill="none" xmlns="http://www.w3.org/2000/svg">
<path d="M50.7127 5.51787C42.9796 9.74575 34.1758 11.7772 26.5121 16.0305C25.2126 16.7514 20.4768 18.0612 19.7893 19.4946C18.8977 21.3561 23.162 24.8374 24.1341 25.6776C29.0354 29.9143 37.6504 37.2235 43.4729 41.2457" stroke="#FF7500" stroke-width="3" stroke-miterlimit="1.5" stroke-linecap="round" stroke-linejoin="round"/>
<path d="M86.6512 63.9255C79.4404 60.723 60.0508 67.0395 64.6072 76.6834C69.1636 86.3275 88.6717 79.1596 86.6512 63.9255Z" stroke="#FF7500" stroke-width="3" stroke-miterlimit="1.5" stroke-linecap="round" stroke-linejoin="round"/>
<path d="M86.6535 63.9249C85.8222 57.6568 83.218 52.0167 79.5868 46.9021C65.7683 27.4395 35.936 22.9617 19.9348 20.7407" stroke="#FF7500" stroke-width="3" stroke-miterlimit="1.5" stroke-linecap="round" stroke-linejoin="round"/>
<path d="M86.6556 63.9261C94.2566 67.3021 98.5834 75.7338 100.021 83.9281C102.732 99.3843 96.5514 116.932 87.2792 128.825" stroke="#FF7500" stroke-width="3" stroke-miterlimit="1.5" stroke-linecap="round" stroke-linejoin="round"/>
</svg>
